<?xml version="1.0" encoding="UTF-8"?>
<svg xmlns="http://www.w3.org/2000/svg" xmlns:xlink="http://www.w3.org/1999/xlink" width="85px" height="85px" viewBox="0 0 85 85" version="1.1">
<g id="surface1">
<path style=" stroke:none;fill-rule:nonzero;fill:rgb(94.901961%,62.745098%,0%);fill-opacity:1;" d="M 65.410156 12.617188 C 72.976562 18.785156 78.4375 27.398438 79.6875 37.1875 C 79.789062 39.160156 79.820312 41.136719 79.753906 43.113281 C 79.703125 45.136719 79.703125 45.136719 80.59375 46.882812 C 81.28125 47.496094 81.28125 47.496094 82.007812 47.984375 C 83.652344 49.199219 84.480469 51.203125 85 53.125 C 85.398438 56.75 85.285156 60.207031 83.085938 63.226562 C 81.238281 65.453125 79.183594 66.992188 76.367188 67.734375 C 75.605469 67.777344 74.847656 67.777344 74.085938 67.773438 C 71.558594 67.730469 71.558594 67.730469 69.230469 68.550781 C 68.632812 69.1875 68.632812 69.1875 68.082031 69.910156 C 63.324219 75.585938 54.863281 78.53125 47.8125 79.6875 C 46.089844 79.832031 44.375 79.867188 42.644531 79.851562 C 42.414062 79.851562 42.183594 79.851562 41.945312 79.851562 C 31.855469 79.796875 22.871094 75.9375 15.699219 68.855469 C 8.429688 61.460938 5.070312 52.058594 5.109375 41.804688 C 5.234375 31.449219 9.367188 22.355469 16.726562 15.125 C 29.863281 2.5625 51 1.832031 65.410156 12.617188 Z M 65.410156 12.617188 "/>
<path style=" stroke:none;fill-rule:nonzero;fill:rgb(90.196078%,90.196078%,90.196078%);fill-opacity:1;" d="M 69.59375 40.234375 C 70.984375 41.292969 72.261719 42.480469 73.378906 43.828125 C 73.378906 44.046875 73.378906 44.265625 73.378906 44.492188 C 73.671875 44.457031 73.96875 44.421875 74.269531 44.386719 C 77.15625 44.398438 80.089844 45.871094 82.128906 47.847656 C 84.921875 51.050781 85.269531 54.304688 85.0625 58.402344 C 84.800781 61.335938 83.125 63.46875 81.015625 65.410156 C 78.632812 67.238281 76.378906 67.835938 73.414062 67.824219 C 72.980469 67.828125 72.980469 67.828125 72.535156 67.832031 C 71.578125 67.835938 70.625 67.835938 69.667969 67.835938 C 69 67.835938 68.332031 67.835938 67.664062 67.839844 C 66.269531 67.839844 64.871094 67.839844 63.472656 67.839844 C 61.6875 67.835938 59.898438 67.84375 58.113281 67.851562 C 56.734375 67.855469 55.355469 67.855469 53.976562 67.855469 C 53.320312 67.855469 52.660156 67.855469 52.003906 67.859375 C 51.078125 67.863281 50.15625 67.863281 49.234375 67.859375 C 48.964844 67.859375 48.695312 67.863281 48.417969 67.867188 C 45.328125 67.835938 43.066406 66.933594 40.824219 64.8125 C 38.90625 62.648438 38.40625 60.296875 38.449219 57.484375 C 38.644531 54.46875 39.925781 52.46875 42.167969 50.46875 C 43.429688 49.617188 44.570312 49.1875 46.070312 48.914062 C 47.15625 48.597656 47.15625 48.597656 47.519531 47.878906 C 47.734375 47.363281 47.941406 46.84375 48.140625 46.320312 C 49.742188 42.359375 52.667969 40.25 56.460938 38.570312 C 60.746094 36.882812 65.785156 37.777344 69.59375 40.234375 Z M 69.59375 40.234375 "/>
<path style=" stroke:none;fill-rule:nonzero;fill:rgb(79.607843%,35.686275%,0.392157%);fill-opacity:1;" d="M 38.183594 57.441406 C 38.292969 57.441406 38.402344 57.441406 38.515625 57.441406 C 38.546875 57.699219 38.582031 57.953125 38.613281 58.21875 C 39.09375 61.554688 39.816406 63.621094 42.335938 65.894531 C 45.25 67.699219 48.378906 67.558594 51.671875 67.570312 C 52.207031 67.578125 52.738281 67.582031 53.269531 67.589844 C 54.660156 67.605469 56.050781 67.617188 57.441406 67.625 C 58.863281 67.632812 60.285156 67.648438 61.707031 67.664062 C 64.492188 67.695312 67.273438 67.714844 70.058594 67.734375 C 68.875 69.605469 68.875 69.605469 67.691406 69.90625 C 66.804688 69.960938 65.941406 69.960938 65.054688 69.933594 C 64.726562 69.929688 64.398438 69.929688 64.0625 69.925781 C 63.007812 69.917969 61.957031 69.894531 60.90625 69.871094 C 60.21875 69.863281 59.53125 69.859375 58.84375 69.851562 C 55.5625 69.820312 52.285156 69.722656 49.007812 69.570312 C 48.726562 69.558594 48.449219 69.546875 48.160156 69.535156 C 46.234375 69.433594 46.234375 69.433594 45.488281 69.0625 C 45.488281 68.84375 45.488281 68.625 45.488281 68.398438 C 44.503906 68.179688 43.515625 67.960938 42.5 67.734375 C 42.5 67.515625 42.5 67.296875 42.5 67.070312 C 42.300781 66.980469 42.101562 66.890625 41.898438 66.800781 C 40.554688 66.070312 39.898438 65.085938 39.179688 63.75 C 39.179688 63.53125 39.179688 63.3125 39.179688 63.085938 C 38.960938 63.085938 38.742188 63.085938 38.515625 63.085938 C 37.949219 61.066406 37.808594 59.507812 38.183594 57.441406 Z M 38.183594 57.441406 "/>
<path style=" stroke:none;fill-rule:nonzero;fill:rgb(68.235294%,30.196078%,0.392157%);fill-opacity:1;" d="M 45.488281 67.734375 C 53.597656 67.734375 61.703125 67.734375 70.058594 67.734375 C 69.0625 69.0625 69.0625 69.0625 68.21875 69.21875 C 67.882812 69.214844 67.542969 69.207031 67.195312 69.203125 C 66.613281 69.199219 66.613281 69.199219 66.023438 69.195312 C 65.390625 69.179688 65.390625 69.179688 64.746094 69.167969 C 64.3125 69.160156 63.875 69.15625 63.429688 69.148438 C 62.238281 69.132812 61.050781 69.105469 59.863281 69.078125 C 59.082031 69.0625 58.304688 69.046875 57.527344 69.035156 C 56.203125 69.011719 54.882812 68.984375 53.5625 68.957031 C 53.050781 68.945312 52.542969 68.933594 52.03125 68.921875 C 51.308594 68.90625 50.585938 68.886719 49.867188 68.867188 C 49.453125 68.859375 49.039062 68.847656 48.617188 68.835938 C 47.480469 68.730469 46.550781 68.472656 45.488281 68.066406 C 45.488281 67.957031 45.488281 67.847656 45.488281 67.734375 Z M 45.488281 67.734375 "/>
<path style=" stroke:none;fill-rule:nonzero;fill:rgb(74.901961%,39.607843%,4.705882%);fill-opacity:1;" d="M 38.183594 57.441406 C 38.292969 57.441406 38.402344 57.441406 38.515625 57.441406 C 38.546875 57.699219 38.582031 57.953125 38.613281 58.21875 C 39.089844 61.535156 39.789062 63.746094 42.421875 65.914062 C 43.582031 66.683594 44.804688 67.074219 46.152344 67.402344 C 46.152344 67.511719 46.152344 67.621094 46.152344 67.734375 C 45.835938 67.726562 45.523438 67.71875 45.199219 67.714844 C 44.191406 67.660156 44.191406 67.660156 43.496094 68.066406 C 43.167969 67.957031 42.839844 67.847656 42.5 67.734375 C 42.5 67.515625 42.5 67.296875 42.5 67.070312 C 42.300781 66.980469 42.101562 66.890625 41.898438 66.800781 C 40.554688 66.070312 39.898438 65.085938 39.179688 63.75 C 39.179688 63.53125 39.179688 63.3125 39.179688 63.085938 C 38.960938 63.085938 38.742188 63.085938 38.515625 63.085938 C 37.949219 61.066406 37.808594 59.507812 38.183594 57.441406 Z M 38.183594 57.441406 "/>
<path style=" stroke:none;fill-rule:nonzero;fill:rgb(82.745098%,47.843137%,6.666667%);fill-opacity:1;" d="M 38.183594 57.441406 C 38.292969 57.441406 38.402344 57.441406 38.515625 57.441406 C 38.871094 59.542969 39.222656 61.640625 39.511719 63.75 C 39.402344 63.53125 39.292969 63.3125 39.179688 63.085938 C 38.960938 63.085938 38.742188 63.085938 38.515625 63.085938 C 37.949219 61.066406 37.808594 59.507812 38.183594 57.441406 Z M 38.183594 57.441406 "/>
<path style=" stroke:none;fill-rule:nonzero;fill:rgb(76.862745%,42.745098%,5.882353%);fill-opacity:1;" d="M 39.511719 63.085938 C 40.34375 63.855469 40.34375 63.855469 41.171875 64.746094 C 41.171875 65.074219 41.171875 65.402344 41.171875 65.742188 C 40.175781 65.410156 40.175781 65.410156 39.78125 64.789062 C 39.511719 64.082031 39.511719 64.082031 39.511719 63.085938 Z M 39.511719 63.085938 "/>
</g>
</svg>
