<?xml version="1.0" encoding="UTF-8"?>
<svg xmlns="http://www.w3.org/2000/svg" xmlns:xlink="http://www.w3.org/1999/xlink" width="85px" height="85px" viewBox="0 0 85 85" version="1.1">
<g id="surface1">
<path style=" stroke:none;fill-rule:nonzero;fill:rgb(33.333333%,39.607843%,50.196078%);fill-opacity:1;" d="M 53.953125 5.476562 C 53.925781 5.566406 53.898438 5.65625 53.871094 5.75 C 53.589844 6.660156 53.335938 7.574219 53.105469 8.496094 C 53.0625 8.664062 53.0625 8.664062 53.019531 8.832031 C 52.210938 12.058594 52.308594 15.910156 53.289062 19.09375 C 53.324219 19.203125 53.359375 19.316406 53.394531 19.433594 C 54.992188 24.4375 58.394531 28.78125 63.0625 31.25 C 68.078125 33.792969 73.601562 34.492188 79.011719 32.765625 C 79.226562 32.695312 79.4375 32.625 79.652344 32.554688 C 80.050781 32.417969 80.4375 32.300781 80.851562 32.207031 C 80.289062 34.339844 78.957031 36.203125 77.53125 37.851562 C 77.414062 37.992188 77.296875 38.136719 77.175781 38.28125 C 73.828125 42.210938 68.964844 44.351562 63.914062 44.992188 C 63.472656 45.007812 63.035156 45 62.585938 44.992188 C 62.589844 45.148438 62.589844 45.308594 62.59375 45.476562 C 62.597656 45.789062 62.597656 45.789062 62.597656 46.109375 C 62.601562 46.320312 62.601562 46.527344 62.605469 46.742188 C 62.589844 47.203125 62.542969 47.542969 62.421875 47.976562 C 62.554688 47.972656 62.683594 47.96875 62.820312 47.964844 C 65.757812 47.855469 68.695312 47.789062 71.636719 47.773438 C 71.972656 47.773438 72.308594 47.769531 72.648438 47.765625 C 73.128906 47.761719 73.605469 47.757812 74.085938 47.757812 C 74.226562 47.757812 74.367188 47.753906 74.515625 47.75 C 76.046875 47.757812 77.367188 48.191406 78.496094 49.261719 C 79.480469 50.296875 79.867188 51.285156 79.914062 52.710938 C 79.855469 54.304688 79.367188 55.261719 78.261719 56.417969 C 77.238281 57.339844 76.15625 57.628906 74.792969 57.628906 C 74.609375 57.628906 74.429688 57.628906 74.242188 57.632812 C 74.042969 57.632812 73.84375 57.632812 73.640625 57.628906 C 73.320312 57.632812 73.320312 57.632812 72.996094 57.632812 C 72.410156 57.632812 71.820312 57.632812 71.230469 57.632812 C 70.597656 57.632812 69.960938 57.636719 69.328125 57.636719 C 67.941406 57.640625 66.550781 57.640625 65.164062 57.640625 C 64.296875 57.640625 63.425781 57.640625 62.558594 57.640625 C 60.152344 57.644531 57.75 57.644531 55.34375 57.648438 C 55.1875 57.648438 55.035156 57.648438 54.875 57.648438 C 54.722656 57.648438 54.566406 57.648438 54.410156 57.648438 C 54.097656 57.648438 53.785156 57.648438 53.472656 57.648438 C 53.316406 57.648438 53.160156 57.648438 53 57.648438 C 50.492188 57.648438 47.984375 57.652344 45.476562 57.65625 C 42.898438 57.660156 40.320312 57.660156 37.742188 57.660156 C 36.292969 57.660156 34.847656 57.664062 33.402344 57.664062 C 32.167969 57.667969 30.9375 57.667969 29.703125 57.667969 C 29.074219 57.667969 28.445312 57.667969 27.820312 57.667969 C 21.054688 57.691406 15.304688 56.421875 10.292969 51.632812 C 10.171875 51.519531 10.050781 51.410156 9.921875 51.296875 C 7.242188 48.796875 5.628906 45.3125 4.648438 41.835938 C 4.589844 41.632812 4.535156 41.433594 4.476562 41.226562 C 3.71875 37.949219 3.890625 34.269531 4.8125 31.046875 C 4.867188 30.863281 4.867188 30.863281 4.917969 30.675781 C 5.746094 27.90625 7.105469 25.445312 8.964844 23.242188 C 9.09375 23.085938 9.222656 22.929688 9.355469 22.765625 C 12.652344 18.949219 17.703125 16.414062 22.71875 15.960938 C 28.707031 15.554688 34.132812 17.136719 38.734375 21.046875 C 39.566406 21.769531 40.296875 22.5625 41.007812 23.40625 C 41.257812 23.15625 41.226562 22.910156 41.269531 22.5625 C 41.976562 16.839844 44.394531 11.800781 48.976562 8.132812 C 52.550781 5.476562 52.550781 5.476562 53.953125 5.476562 Z M 53.953125 5.476562 "/>
<path style=" stroke:none;fill-rule:nonzero;fill:rgb(67.843137%,70.588235%,90.980392%);fill-opacity:1;" d="M 39.394531 36.15625 C 41.589844 37.957031 43.40625 40.324219 43.992188 43.164062 C 44.015625 43.609375 44.011719 44.042969 43.992188 44.492188 C 44.179688 44.410156 44.367188 44.332031 44.5625 44.246094 C 45.34375 43.957031 46.050781 43.910156 46.878906 43.921875 C 47.085938 43.921875 47.085938 43.921875 47.300781 43.925781 C 48.359375 43.953125 49.210938 44.113281 50.136719 44.65625 C 50.265625 44.730469 50.394531 44.800781 50.527344 44.871094 C 52.007812 45.757812 53.105469 47.21875 53.570312 48.882812 C 53.804688 49.941406 53.976562 51.074219 53.625 52.128906 C 53.71875 52.101562 53.8125 52.074219 53.910156 52.046875 C 54.28125 51.964844 54.605469 51.9375 54.980469 51.933594 C 55.183594 51.929688 55.183594 51.929688 55.390625 51.925781 C 55.535156 51.925781 55.679688 51.925781 55.832031 51.921875 C 55.980469 51.921875 56.132812 51.921875 56.289062 51.917969 C 56.605469 51.917969 56.925781 51.914062 57.242188 51.914062 C 57.566406 51.910156 57.890625 51.910156 58.21875 51.902344 C 58.6875 51.898438 59.15625 51.894531 59.628906 51.890625 C 59.773438 51.890625 59.914062 51.886719 60.0625 51.882812 C 61.242188 51.886719 62.140625 52.179688 62.980469 53.019531 C 63.492188 53.84375 63.664062 54.507812 63.507812 55.457031 C 63.253906 56.382812 62.5625 57.113281 61.757812 57.609375 C 61.304688 57.6875 60.953125 57.71875 60.503906 57.710938 C 60.378906 57.710938 60.257812 57.714844 60.132812 57.714844 C 59.722656 57.71875 59.3125 57.714844 58.902344 57.710938 C 58.605469 57.714844 58.3125 57.714844 58.015625 57.714844 C 57.214844 57.71875 56.414062 57.714844 55.613281 57.714844 C 54.773438 57.710938 53.933594 57.710938 53.09375 57.714844 C 51.683594 57.714844 50.269531 57.710938 48.859375 57.707031 C 47.230469 57.703125 45.605469 57.703125 43.976562 57.703125 C 42.40625 57.707031 40.835938 57.707031 39.265625 57.703125 C 38.601562 57.703125 37.9375 57.703125 37.269531 57.703125 C 36.484375 57.703125 35.699219 57.703125 34.910156 57.699219 C 34.625 57.695312 34.335938 57.695312 34.050781 57.699219 C 31.671875 57.707031 29.257812 57.472656 27.132812 56.300781 C 27.023438 56.242188 26.914062 56.183594 26.800781 56.125 C 25.996094 55.691406 25.25 55.230469 24.570312 54.617188 C 24.449219 54.511719 24.328125 54.402344 24.199219 54.289062 C 22.035156 52.246094 20.707031 49.402344 20.558594 46.429688 C 20.480469 42.988281 21.484375 39.949219 23.828125 37.394531 C 24.945312 36.320312 26.171875 35.53125 27.558594 34.863281 C 27.734375 34.773438 27.914062 34.6875 28.097656 34.597656 C 31.78125 33.078125 36.226562 33.855469 39.394531 36.15625 Z M 39.394531 36.15625 "/>
<path style=" stroke:none;fill-rule:nonzero;fill:rgb(99.607843%,89.411765%,42.352941%);fill-opacity:1;" d="M 53.953125 5.476562 C 53.925781 5.566406 53.898438 5.65625 53.871094 5.75 C 53.589844 6.660156 53.335938 7.574219 53.105469 8.496094 C 53.074219 8.609375 53.046875 8.71875 53.019531 8.832031 C 52.210938 12.058594 52.308594 15.910156 53.289062 19.09375 C 53.324219 19.203125 53.359375 19.316406 53.394531 19.433594 C 54.992188 24.4375 58.394531 28.78125 63.0625 31.25 C 68.078125 33.792969 73.601562 34.492188 79.011719 32.765625 C 79.226562 32.695312 79.4375 32.625 79.652344 32.554688 C 80.050781 32.417969 80.4375 32.300781 80.851562 32.207031 C 80.289062 34.339844 78.957031 36.203125 77.53125 37.851562 C 77.414062 37.992188 77.296875 38.136719 77.175781 38.28125 C 73.832031 42.210938 68.964844 44.359375 63.914062 44.992188 C 63.644531 45 63.371094 45.003906 63.097656 45 C 62.96875 45 62.839844 44.996094 62.707031 44.996094 C 62.566406 44.992188 62.566406 44.992188 62.421875 44.992188 C 62.398438 44.828125 62.375 44.664062 62.347656 44.496094 C 61.96875 42.144531 61.289062 40.0625 59.765625 38.183594 C 59.613281 37.988281 59.613281 37.988281 59.453125 37.792969 C 57.679688 35.667969 55.003906 34.34375 52.296875 33.867188 C 50.421875 33.699219 48.179688 33.648438 46.46875 34.546875 C 46.152344 34.695312 46.152344 34.695312 45.488281 34.695312 C 45.453125 34.425781 45.453125 34.425781 45.414062 34.148438 C 44.933594 30.832031 43.902344 27.300781 41.628906 24.746094 C 40.976562 23.859375 41.132812 22.945312 41.269531 21.90625 C 41.917969 17.765625 43.433594 14.167969 46.152344 10.957031 C 46.265625 10.820312 46.382812 10.683594 46.5 10.542969 C 48.015625 8.785156 51.410156 5.476562 53.953125 5.476562 Z M 53.953125 5.476562 "/>
<path style=" stroke:none;fill-rule:nonzero;fill:rgb(3.137255%,68.235294%,80%);fill-opacity:1;" d="M 56.445312 61.09375 C 57.082031 61.6875 57.550781 62.300781 57.992188 63.054688 C 58.085938 63.214844 58.085938 63.214844 58.183594 63.382812 C 60.707031 67.734375 60.707031 67.734375 60.324219 69.613281 C 59.871094 70.832031 59.175781 71.691406 57.992188 72.269531 C 56.8125 72.511719 55.660156 72.570312 54.59375 71.949219 C 53.726562 71.292969 52.996094 70.484375 52.792969 69.394531 C 52.445312 66.5625 54.941406 63.355469 56.445312 61.09375 Z M 56.445312 61.09375 "/>
<path style=" stroke:none;fill-rule:nonzero;fill:rgb(3.137255%,68.235294%,80%);fill-opacity:1;" d="M 27.390625 61.09375 C 28.085938 61.695312 28.488281 62.433594 28.9375 63.222656 C 29.058594 63.429688 29.058594 63.429688 29.179688 63.640625 C 31.5625 67.84375 31.5625 67.84375 31.128906 69.757812 C 30.730469 70.945312 29.941406 71.574219 28.886719 72.21875 C 27.871094 72.554688 26.761719 72.519531 25.761719 72.125 C 24.738281 71.605469 24.097656 70.808594 23.742188 69.726562 C 23.53125 68.21875 23.898438 67.074219 24.570312 65.742188 C 24.621094 65.644531 24.667969 65.546875 24.71875 65.445312 C 26.402344 62.082031 26.402344 62.082031 27.390625 61.09375 Z M 27.390625 61.09375 "/>
<path style=" stroke:none;fill-rule:nonzero;fill:rgb(3.137255%,68.235294%,80%);fill-opacity:1;" d="M 41.835938 68.398438 C 42.480469 68.644531 42.703125 68.976562 43.042969 69.5625 C 43.191406 69.820312 43.191406 69.820312 43.34375 70.078125 C 43.445312 70.257812 43.546875 70.433594 43.652344 70.617188 C 43.753906 70.789062 43.855469 70.960938 43.957031 71.140625 C 46.113281 74.875 46.113281 74.875 45.742188 76.773438 C 45.421875 77.835938 44.945312 78.539062 44.015625 79.160156 C 43 79.6875 41.957031 79.683594 40.839844 79.523438 C 39.859375 79.167969 39.070312 78.402344 38.515625 77.53125 C 38.054688 76.488281 38.121094 75.367188 38.488281 74.304688 C 38.671875 73.878906 38.871094 73.460938 39.074219 73.046875 C 39.148438 72.898438 39.222656 72.746094 39.296875 72.59375 C 40.027344 71.117188 40.902344 69.753906 41.835938 68.398438 Z M 41.835938 68.398438 "/>
</g>
</svg>
